<svg xmlns="http://www.w3.org/2000/svg" viewBox="0 0 24 24" fill="none" stroke="#e8ecf5" stroke-width="2" stroke-linecap="round" stroke-linejoin="round">
  <circle cx="12" cy="12" r="3" fill="none"/>
  <path d="M19.4 15a1.65 1.65 0 0 0 .33 1.82l.06.06a2 2 0 1 1-2.83 2.83l-.06-.06a1.65 1.65 0 0 0-1.82-.33 1.65 1.65 0 0 0-1 1.51V21a2 2 0 1 1-4 0v-.09A1.65 1.65 0 0 0 9.4 19.4a1.65 1.65 0 0 0-1.82.33l-.06.06a2 2 0 1 1-2.83-2.83l.06-.06A1.65 1.65 0 0 0 5 15.4a1.65 1.65 0 0 0-1.51-1H3.4a2 2 0 1 1 0-4h.09A1.65 1.65 0 0 0 5 9.4a1.65 1.65 0 0 0-.33-1.82l-.06-.06a2 2 0 1 1 2.83-2.83l.06.06A1.65 1.65 0 0 0 9.4 5a1.65 1.65 0 0 0 1-1.51V3.4a2 2 0 1 1 4 0v.09A1.65 1.65 0 0 0 14.6 5a1.65 1.65 0 0 0 1.82-.33l.06-.06a2 2 0 1 1 2.83 2.83l-.06.06A1.65 1.65 0 0 0 19.4 9.4a1.65 1.65 0 0 0 1.51 1H20.6a2 2 0 1 1 0 4h-.09A1.65 1.65 0 0 0 19.4 15z"/>
</svg>
